<svg width="16" height="23" viewBox="0 0 16 23" fill="none" xmlns="http://www.w3.org/2000/svg">
<path d="M0.96 23H15.04C15.5693 23 16 22.5163 16 21.9219V1.07812C16 0.483719 15.5693 0 15.04 0H0.96C0.43072 0 0 0.483719 0 1.07812V21.9219C0 22.5163 0.43072 23 0.96 23ZM0.64 1.07812C0.64 0.982813 0.673714 0.891404 0.733726 0.824008C0.793737 0.756613 0.875131 0.71875 0.96 0.71875H15.04C15.1249 0.71875 15.2063 0.756613 15.2663 0.824008C15.3263 0.891404 15.36 0.982813 15.36 1.07812V21.9219C15.36 22.0172 15.3263 22.1086 15.2663 22.176C15.2063 22.2434 15.1249 22.2812 15.04 22.2812H0.96C0.875131 22.2812 0.793737 22.2434 0.733726 22.176C0.673714 22.1086 0.64 22.0172 0.64 21.9219V1.07812Z" fill="#0061FB"/>
<path d="M2.24004 19.4062H13.76C13.8449 19.4062 13.9263 19.3684 13.9863 19.301C14.0463 19.2336 14.08 19.1422 14.08 19.0469V2.51562C14.08 2.42031 14.0463 2.3289 13.9863 2.26151C13.9263 2.19411 13.8449 2.15625 13.76 2.15625H2.24004C2.15517 2.15625 2.07378 2.19411 2.01377 2.26151C1.95376 2.3289 1.92004 2.42031 1.92004 2.51562V19.0469C1.92004 19.1422 1.95376 19.2336 2.01377 19.301C2.07378 19.3684 2.15517 19.4062 2.24004 19.4062ZM2.56004 2.875H13.44V18.6875H2.56004V2.875Z" fill="#0061FB"/>
<path d="M8.32005 21.5625C8.67352 21.5625 8.96005 21.2407 8.96005 20.8438C8.96005 20.4468 8.67352 20.125 8.32005 20.125C7.96659 20.125 7.68005 20.4468 7.68005 20.8438C7.68005 21.2407 7.96659 21.5625 8.32005 21.5625Z" fill="#0061FB"/>
</svg>
