<svg width="14" height="21" viewBox="0 0 14 21" fill="none" xmlns="http://www.w3.org/2000/svg">
<path d="M10.5 1.29861C10.8481 1.29861 11.1819 1.43543 11.4281 1.67897C11.6742 1.9225 11.8125 2.25281 11.8125 2.59722V18.1806C11.8125 18.525 11.6742 18.8553 11.4281 19.0988C11.1819 19.3423 10.8481 19.4792 10.5 19.4792H2.625C2.2769 19.4792 1.94306 19.3423 1.69692 19.0988C1.45078 18.8553 1.3125 18.525 1.3125 18.1806V2.59722C1.3125 2.25281 1.45078 1.9225 1.69692 1.67897C1.94306 1.43543 2.2769 1.29861 2.625 1.29861H10.5ZM2.625 0C1.92881 0 1.26113 0.273635 0.768845 0.760709C0.276562 1.24778 0 1.9084 0 2.59722V18.1806C0 18.8694 0.276562 19.53 0.768845 20.0171C1.26113 20.5041 1.92881 20.7778 2.625 20.7778H10.5C11.1962 20.7778 11.8639 20.5041 12.3562 20.0171C12.8484 19.53 13.125 18.8694 13.125 18.1806V2.59722C13.125 1.9084 12.8484 1.24778 12.3562 0.760709C11.8639 0.273635 11.1962 0 10.5 0L2.625 0Z" fill="#0061FB"/>
<path d="M6.5625 18.1807C6.9106 18.1807 7.24444 18.0439 7.49058 17.8004C7.73672 17.5568 7.875 17.2265 7.875 16.8821C7.875 16.5377 7.73672 16.2074 7.49058 15.9639C7.24444 15.7203 6.9106 15.5835 6.5625 15.5835C6.2144 15.5835 5.88056 15.7203 5.63442 15.9639C5.38828 16.2074 5.25 16.5377 5.25 16.8821C5.25 17.2265 5.38828 17.5568 5.63442 17.8004C5.88056 18.0439 6.2144 18.1807 6.5625 18.1807Z" fill="#0061FB"/>
</svg>
