<svg width="13" height="15" viewBox="0 0 13 15" fill="none" xmlns="http://www.w3.org/2000/svg">
<path d="M10.9375 2.72656H9.625V1.30469C9.625 1.14062 9.46094 0.976562 9.29688 0.976562H8.20312C8.01172 0.976562 7.875 1.14062 7.875 1.30469V2.72656H4.375V1.30469C4.375 1.14062 4.21094 0.976562 4.04688 0.976562H2.95312C2.76172 0.976562 2.625 1.14062 2.625 1.30469V2.72656H1.3125C0.574219 2.72656 0 3.32812 0 4.03906V13.6641C0 14.4023 0.574219 14.9766 1.3125 14.9766H10.9375C11.6484 14.9766 12.25 14.4023 12.25 13.6641V4.03906C12.25 3.32812 11.6484 2.72656 10.9375 2.72656ZM10.7734 13.6641H1.47656C1.36719 13.6641 1.3125 13.6094 1.3125 13.5V5.35156H10.9375V13.5C10.9375 13.6094 10.8555 13.6641 10.7734 13.6641Z" fill="#0061FB"/>
</svg>
