<svg width="16" height="16" viewBox="0 0 16 16" fill="none" xmlns="http://www.w3.org/2000/svg">
<path d="M13.3148 2.71651C11.9156 1.31731 10.0178 0.53125 8.03907 0.53125C6.06031 0.53125 4.16259 1.31731 2.76339 2.71651C1.36419 4.11571 0.578125 6.01343 0.578125 7.9922C0.578125 9.97097 1.36419 11.8687 2.76339 13.2679C4.16259 14.6671 6.06031 15.4531 8.03907 15.4531C10.0178 15.4531 11.9156 14.6671 13.3148 13.2679C14.714 11.8687 15.5 9.97097 15.5 7.9922C15.5 6.01343 14.714 4.11571 13.3148 2.71651V2.71651ZM8.03907 14.4531C4.47657 14.4531 1.57814 11.5548 1.57814 7.9922C1.57814 4.42964 4.47651 1.53126 8.03907 1.53126C11.6016 1.53126 14.5 4.42964 14.5 7.9922C14.5 11.5548 11.6016 14.4531 8.03907 14.4531Z" fill="#0061FB"/>
<path d="M6.91458 9.55652L4.62042 7.26239L3.91333 7.96948L6.91458 10.9707L12.149 5.73639L11.4418 5.0293L6.91458 9.55652Z" fill="#0061FB"/>
</svg>
