<svg width="15" height="15" viewBox="0 0 15 15" fill="none" xmlns="http://www.w3.org/2000/svg">
<g clip-path="url(#clip0_522_875)">
<path d="M7.95459 2.79785H7.01709V8.01595L10.4042 9.62575L10.8066 8.77901L7.95459 7.42351V2.79785Z" fill="#0061FB"/>
<path d="M7.5 -0.53125C3.61676 -0.53125 0.46875 2.61676 0.46875 6.5C0.46875 10.3832 3.61676 13.5312 7.5 13.5312C11.3832 13.5312 14.5312 10.3832 14.5312 6.5C14.5312 2.61676 11.3832 -0.53125 7.5 -0.53125ZM7.5 12.5938C4.13452 12.5938 1.40625 9.86548 1.40625 6.5C1.40625 3.13452 4.13452 0.40625 7.5 0.40625C10.8655 0.40625 13.5938 3.13452 13.5938 6.5C13.5938 9.86548 10.8655 12.5938 7.5 12.5938Z" fill="#0061FB"/>
</g>
<defs>
<clipPath id="clip0_522_875">
<rect width="15" height="15" fill="white"/>
</clipPath>
</defs>
</svg>
