<svg width="160" height="160" viewBox="0 0 160 160" fill="none" xmlns="http://www.w3.org/2000/svg">
<path d="M160 80C160 124.183 124.183 160 80 160C35.8172 160 0 124.183 0 80C0 35.8172 35.8172 0 80 0C124.183 0 160 35.8172 160 80Z" fill="#005FFF"/>
<path d="M55.054 97.7896V52.4735H110.108V73.1187H116.989V52.4735C116.989 48.6886 113.893 45.5918 110.108 45.5918H55.054C51.269 45.5918 48.2066 48.6886 48.2066 52.4735L48.1722 114.409L61.9357 100.646H92.9034V93.7638H59.0798L55.054 97.7896Z" fill="#F8F8F8"/>
<path d="M118.71 93.7634H111.14L116.989 80H99.7852V100.645H106.667V117.849L118.71 93.7634Z" fill="#F8F8F8"/>
</svg>
