<svg width="160" height="160" viewBox="0 0 160 160" fill="none" xmlns="http://www.w3.org/2000/svg">
<circle cx="80" cy="80" r="80" fill="#005FFF"/>
<path d="M97.2043 47.3459L62.7957 47.3115C59.0107 47.3115 55.9139 50.4083 55.9139 54.1932V116.129C55.9139 119.914 59.0107 123.01 62.7957 123.01H97.2043C100.989 123.01 104.086 119.914 104.086 116.129V54.1932C104.086 50.4083 100.989 47.3459 97.2043 47.3459ZM97.2043 116.129H62.7957V112.688H97.2043V116.129ZM97.2043 105.806H62.7957V64.5158H97.2043V105.806ZM97.2043 57.6341H62.7957V54.1932H97.2043V57.6341ZM93.7634 78.4513L88.9118 73.5997L76.7311 85.7803L71.8795 80.9287L67.0279 85.7803L76.7311 95.4836L93.7634 78.4513Z" fill="#F8F8F8"/>
</svg>
