<svg width="18" height="18" viewBox="0 0 18 18" fill="none" xmlns="http://www.w3.org/2000/svg">
<path d="M8.92676 4.4856C8.48175 4.4856 8.04674 4.61756 7.67673 4.86479C7.30672 5.11202 7.01833 5.46342 6.84803 5.87456C6.67773 6.28569 6.63318 6.73809 6.71999 7.17455C6.80681 7.61101 7.0211 8.01192 7.33577 8.32659C7.65044 8.64125 8.05135 8.85555 8.48781 8.94236C8.92426 9.02918 9.37666 8.98462 9.7878 8.81433C10.1989 8.64403 10.5503 8.35564 10.7976 7.98563C11.0448 7.61562 11.1768 7.1806 11.1768 6.7356C11.1761 6.13907 10.9388 5.56717 10.517 5.14536C10.0952 4.72355 9.52329 4.48627 8.92676 4.4856ZM8.92676 7.8606C8.70426 7.8606 8.48675 7.79462 8.30174 7.671C8.11674 7.54738 7.97254 7.37168 7.88739 7.16612C7.80225 6.96055 7.77997 6.73435 7.82338 6.51612C7.86678 6.29789 7.97393 6.09743 8.13126 5.9401C8.2886 5.78277 8.48905 5.67562 8.70728 5.63221C8.92551 5.5888 9.15171 5.61108 9.35728 5.69623C9.56284 5.78138 9.73855 5.92557 9.86216 6.11058C9.98578 6.29558 10.0518 6.51309 10.0518 6.7356C10.0514 7.03386 9.93278 7.31981 9.72187 7.53071C9.51097 7.74162 9.22502 7.86025 8.92676 7.8606Z" fill="#0061FB"/>
<path d="M13.2505 2.40899C12.1815 1.34025 10.7545 0.705382 9.24489 0.626904C7.73532 0.548426 6.25019 1.03191 5.07612 1.98403C3.90206 2.93615 3.12229 4.28943 2.88733 5.78267C2.65236 7.2759 2.97885 8.80325 3.80377 10.0699L8.05441 16.5954C8.149 16.7406 8.27834 16.8599 8.43069 16.9425C8.58305 17.025 8.7536 17.0683 8.9269 17.0683C9.1002 17.0683 9.27075 17.025 9.42311 16.9425C9.57546 16.8599 9.7048 16.7406 9.79939 16.5954L14.0502 10.0699C14.8156 8.8949 15.1539 7.49247 15.0083 6.0977C14.8627 4.70294 14.2421 3.4006 13.2505 2.40899ZM13.1076 9.45585L8.92692 15.8736L4.74624 9.45585C3.46655 7.49135 3.74102 4.86237 5.39885 3.20447C5.86215 2.74115 6.41219 2.37362 7.01753 2.12287C7.62288 1.87212 8.27169 1.74307 8.92692 1.74307C9.58214 1.74307 10.231 1.87212 10.8363 2.12287C11.4416 2.37362 11.9917 2.74115 12.455 3.20447C14.1128 4.86237 14.3872 7.49135 13.1076 9.45585Z" fill="#0061FB"/>
</svg>
