<svg width="160" height="160" viewBox="0 0 160 160" fill="none" xmlns="http://www.w3.org/2000/svg">
<circle cx="80" cy="80" r="80" fill="#005FFF"/>
<path d="M103.757 49.0322H83.9294C83.313 49.0318 82.7215 49.2753 82.2842 49.7097L42.6455 89.3387C41.7778 90.2107 41.2906 91.3908 41.2906 92.6209C41.2906 93.8511 41.7778 95.0312 42.6455 95.9032L61.5165 114.774C62.3887 115.642 63.5691 116.129 64.7995 116.129C66.03 116.129 67.2103 115.642 68.0826 114.774L107.71 75.1613C108.144 74.7239 108.388 74.1325 108.387 73.5161V53.6774C108.39 53.0678 108.273 52.4636 108.041 51.8996C107.81 51.3356 107.469 50.823 107.039 50.3913C106.608 49.9595 106.097 49.6172 105.533 49.3839C104.97 49.1507 104.366 49.0312 103.757 49.0322V49.0322Z" stroke="#F8F8F8" stroke-width="2" stroke-linecap="round" stroke-linejoin="round"/>
<path d="M95.4842 67.097C94.4634 67.097 93.4655 66.7943 92.6167 66.2272C91.7679 65.66 91.1064 64.854 90.7158 63.9108C90.3251 62.9677 90.2229 61.93 90.4221 60.9288C90.6212 59.9276 91.1128 59.0079 91.8346 58.2861C92.5564 57.5643 93.4761 57.0727 94.4773 56.8736C95.4784 56.6744 96.5162 56.7767 97.4593 57.1673C98.4024 57.5579 99.2085 58.2195 99.7756 59.0682C100.343 59.917 100.645 60.9149 100.645 61.9357C100.645 63.3046 100.102 64.6174 99.1338 65.5853C98.1658 66.5532 96.853 67.097 95.4842 67.097Z" fill="#F8F8F8"/>
<path d="M75.8068 121.291L118.065 79.0325C118.275 78.8206 118.44 78.5686 118.551 78.2915C118.662 78.0144 118.716 77.7179 118.71 77.4196V56.7744" stroke="#F8F8F8" stroke-width="2" stroke-linecap="round" stroke-linejoin="round"/>
</svg>
