<svg width="16" height="17" viewBox="0 0 16 17" fill="none" xmlns="http://www.w3.org/2000/svg">
<path d="M12.372 16.9706C12.2163 16.9702 12.061 16.9525 11.9089 16.918C9.01316 16.2993 6.34541 14.8487 4.21268 12.7331C2.12547 10.6129 0.677879 7.91338 0.0450497 4.9612C-0.0295688 4.59327 -0.0112545 4.21169 0.0982308 3.85319C0.207716 3.49469 0.404687 3.17132 0.670195 2.91419L2.52248 1.07284C2.61708 0.980431 2.7295 0.909666 2.85238 0.865164C2.97525 0.820662 3.10584 0.803423 3.2356 0.814572C3.37016 0.829069 3.5 0.873836 3.616 0.945723C3.73201 1.01761 3.83135 1.11487 3.90706 1.23067L6.22241 4.76511C6.30924 4.90225 6.35115 5.06455 6.34198 5.22814C6.33281 5.39172 6.27304 5.54795 6.17147 5.67382L5.00916 7.10864C5.47207 8.1668 6.12764 9.12317 6.94017 9.92567C7.74744 10.7573 8.70161 11.4213 9.75101 11.8818L11.1912 10.7005C11.3121 10.6017 11.4593 10.5434 11.6131 10.5331C11.767 10.5229 11.9202 10.5612 12.0525 10.6431L15.5486 12.9771C15.6686 13.051 15.7708 13.1521 15.8476 13.2727C15.9244 13.3933 15.9738 13.5302 15.9921 13.6733C16.0103 13.8164 15.997 13.9619 15.9531 14.0989C15.9092 14.2359 15.8358 14.3609 15.7385 14.4645L13.9325 16.3106C13.7274 16.5215 13.4839 16.6883 13.2161 16.8016C12.9483 16.9149 12.6614 16.9723 12.372 16.9706ZM3.16151 1.76155L1.30923 3.6029C1.15987 3.74665 1.0493 3.92807 0.98841 4.12933C0.927516 4.33059 0.91839 4.54475 0.961929 4.75076C1.55036 7.52098 2.90299 10.0559 4.85635 12.0492C6.86339 14.0396 9.37389 15.404 12.0988 15.9854C12.305 16.0299 12.5188 16.0209 12.7208 15.9591C12.9228 15.8974 13.1069 15.7848 13.2564 15.6315L15.0624 13.7853L11.6866 11.5327L10.14 12.8049C10.0808 12.8533 10.011 12.886 9.93675 12.9002C9.86249 12.9143 9.78601 12.9095 9.71396 12.8862C8.42973 12.3975 7.26592 11.6217 6.30576 10.6144C5.31264 9.6565 4.54175 8.47938 4.05061 7.17082C4.02983 7.0916 4.02914 7.00819 4.0486 6.92862C4.06807 6.84904 4.10703 6.77598 4.16175 6.71646L5.41203 5.17164L3.16151 1.76155Z" fill="white"/>
</svg>
